<?xml version="1.0" standalone="no"?>
<!DOCTYPE svg PUBLIC "-//W3C//DTD SVG 20010904//EN"
 "http://www.w3.org/TR/2001/REC-SVG-20010904/DTD/svg10.dtd">
<svg version="1.0" xmlns="http://www.w3.org/2000/svg"
 width="1764.000000pt" height="1764.000000pt" viewBox="0 0 1764.000000 1764.000000"
 preserveAspectRatio="xMidYMid meet">
<metadata>
Created by potrace 1.14, written by Peter Selinger 2001-2017
</metadata>
<g transform="translate(0.000000,1764.000000) scale(0.100000,-0.100000)"
fill="#000000" stroke="none">
<path d="M8538 17635 c-2 -1 -73 -5 -158 -9 -85 -4 -177 -9 -205 -11 -27 -2
-79 -7 -115 -10 -125 -10 -185 -16 -215 -20 -16 -2 -70 -9 -120 -15 -49 -6
-101 -13 -115 -15 -14 -2 -50 -6 -80 -10 -101 -12 -534 -93 -665 -126 -44 -10
-89 -21 -100 -23 -52 -10 -203 -47 -225 -55 -14 -6 -92 -28 -175 -51 -193 -53
-548 -171 -607 -201 -10 -5 -23 -9 -30 -9 -6 0 -30 -8 -52 -19 -23 -10 -90
-38 -151 -61 -122 -48 -125 -49 -350 -150 -309 -138 -821 -415 -1055 -570 -50
-33 -93 -60 -96 -60 -14 0 -467 -321 -573 -406 -81 -65 -80 -64 -151 -119 -36
-28 -70 -54 -76 -60 -6 -5 -31 -26 -55 -47 -24 -20 -53 -44 -65 -55 -12 -10
-52 -45 -90 -78 -113 -99 -153 -136 -258 -235 -215 -205 -431 -430 -581 -605
-33 -38 -65 -74 -71 -80 -6 -5 -40 -46 -75 -90 -35 -44 -66 -82 -69 -85 -3 -3
-23 -27 -45 -55 -22 -27 -43 -51 -47 -53 -5 -2 -8 -10 -8 -17 0 -7 -4 -15 -8
-17 -8 -3 -92 -112 -204 -264 -116 -159 -384 -577 -498 -779 -293 -517 -545
-1090 -725 -1645 -63 -193 -183 -629 -202 -730 -2 -14 -13 -65 -24 -115 -22
-96 -36 -169 -45 -225 -3 -19 -8 -38 -9 -41 -2 -3 -7 -28 -11 -55 -3 -27 -8
-56 -9 -65 -2 -9 -11 -66 -20 -125 -9 -60 -18 -120 -21 -134 -4 -28 -20 -158
-29 -235 -3 -27 -7 -63 -9 -80 -3 -27 -8 -75 -21 -245 -26 -331 -27 -1114 0
-1315 2 -17 6 -68 10 -115 8 -105 12 -150 21 -220 4 -30 8 -68 10 -85 1 -16 5
-48 8 -70 4 -22 9 -58 12 -80 9 -71 24 -169 28 -192 3 -11 8 -43 12 -70 9 -61
12 -81 18 -101 3 -9 7 -33 10 -52 42 -279 228 -977 337 -1265 10 -27 45 -122
78 -210 178 -480 400 -939 684 -1415 99 -166 403 -622 459 -690 7 -8 31 -40
53 -70 22 -30 50 -66 62 -80 13 -14 23 -28 23 -32 0 -3 6 -13 13 -20 11 -11
48 -57 107 -131 8 -11 20 -24 25 -31 6 -6 44 -51 85 -101 41 -49 77 -92 80
-95 3 -3 41 -45 85 -95 209 -237 521 -545 771 -760 76 -66 151 -131 166 -145
15 -14 39 -34 54 -45 15 -11 84 -65 153 -120 147 -116 496 -365 673 -479 68
-44 211 -131 318 -193 107 -62 202 -117 210 -122 25 -16 523 -265 560 -280 19
-8 73 -32 120 -54 47 -22 164 -71 260 -109 96 -38 186 -74 200 -80 14 -6 34
-14 45 -19 17 -6 211 -71 225 -74 3 -1 12 -4 20 -7 8 -3 44 -16 80 -28 36 -12
74 -26 85 -30 11 -5 31 -11 45 -14 27 -5 23 -4 260 -71 91 -26 215 -58 275
-71 61 -14 155 -36 210 -48 55 -13 118 -26 140 -30 44 -7 54 -8 205 -36 58
-11 134 -24 170 -29 59 -9 87 -13 200 -26 33 -4 160 -20 245 -30 22 -3 85 -8
140 -11 55 -3 111 -7 125 -10 142 -24 988 -24 1250 0 42 4 118 11 265 22 33 3
71 7 85 9 14 2 99 14 190 25 91 11 179 23 195 26 17 3 82 14 145 25 63 11 122
22 130 24 8 3 33 7 55 11 34 5 144 27 195 39 8 2 85 20 170 40 229 53 717 196
805 235 11 5 45 16 75 25 100 31 460 175 654 262 375 167 808 401 1151 622
193 124 528 358 610 426 28 22 91 72 140 110 50 38 95 73 100 79 6 6 31 28 57
49 26 21 53 43 60 50 7 7 67 60 133 117 278 244 645 616 850 861 11 13 54 65
96 114 82 97 113 137 247 315 48 63 91 119 95 125 101 124 466 693 576 900 18
33 44 80 58 105 54 97 216 427 279 567 36 81 72 162 79 179 86 187 268 702
349 984 82 287 200 796 220 955 2 17 9 59 14 95 6 36 14 84 17 107 3 23 8 57
11 75 18 129 36 292 49 438 4 41 8 93 10 115 27 293 26 1034 0 1340 -12 135
-17 189 -20 208 -2 12 -6 54 -10 92 -3 39 -8 84 -10 100 -2 17 -7 50 -10 75
-3 25 -7 54 -9 65 -3 18 -9 56 -22 155 -3 19 -14 82 -24 140 -11 58 -22 119
-25 135 -12 70 -16 91 -20 105 -2 8 -7 29 -9 45 -5 25 -18 86 -61 275 -73 324
-285 983 -400 1245 -8 17 -32 74 -54 127 -154 366 -350 748 -579 1128 -108
179 -256 403 -390 589 -75 105 -201 272 -212 281 -3 3 -19 23 -35 45 -17 22
-32 42 -35 45 -3 3 -50 59 -105 125 -303 364 -666 730 -1035 1045 -35 30 -83
71 -105 90 -76 67 -350 277 -525 402 -161 114 -220 154 -409 275 -66 42 -233
142 -303 182 -21 11 -55 31 -75 42 -195 111 -509 269 -733 368 -91 40 -174 77
-185 82 -88 39 -462 180 -515 194 -8 2 -60 20 -115 39 -147 52 -527 160 -705
201 -85 19 -180 41 -210 49 -30 8 -73 18 -95 21 -23 3 -52 8 -65 10 -118 24
-335 61 -405 70 -70 9 -116 15 -145 20 -14 2 -50 6 -81 10 -31 3 -65 7 -75 9
-36 7 -208 22 -363 31 -57 4 -114 9 -125 11 -22 5 -773 13 -778 9z"/>
</g>
</svg>
